<svg width="657" height="590" xmlns="http://www.w3.org/2000/svg" xmlns:xlink="http://www.w3.org/1999/xlink" xml:space="preserve" overflow="hidden"><g transform="translate(-311 -65)"><path d="M409 649C371.3 645.3 341 632 326.4 612.7 317.1 600.4 313.1 588.7 312.3 570.9L311.7 559.3 330.6 558.7C341 558.3 355.8 557.1 363.5 556 371.2 554.9 377.8 554 378.2 554 378.6 554 379 559.6 379 566.5 379 582.2 380.9 592 386 602.8 395.8 623.4 414.4 632.9 436.6 628.6 466.3 622.9 493.3 596.4 500.5 565.8 502.4 557.6 502.4 542 500.5 534.5 496 517.6 483.7 506.5 463.2 501.2 457.4 499.7 451 499.5 415.5 499.4L374.5 499.4 364.6 496.7C350.1 492.8 340.9 487.9 332.4 479.5 320.2 467.5 315.6 455.6 315.6 436.5 315.7 417.7 320.4 401.7 330.8 385 336.9 375.1 350.5 361.6 360.4 355.5 379 344 412.7 336.9 448.6 337 482.6 337 509.5 343.1 528.2 355.2 548.5 368.3 558.5 383.4 562.4 407.1L563 410.7 543.8 411.4C523.5 412.2 507.2 413.9 498 416.4 495 417.2 492.5 417.8 492.4 417.7 492.3 417.6 492.7 413.9 493.3 409.5 495.2 394.1 490.8 379.1 481.3 368.9 471.9 358.8 461.6 354.7 445.5 354.7 436.3 354.7 433.2 355.1 426.5 357.3 408.4 363.2 389.4 379 382.9 393.6 377.3 406.1 376.4 424.7 380.9 436.3 385.3 447.6 397 456.5 413.9 461.3 421.2 463.4 423.4 463.5 463.5 463.5 499.6 463.5 506.4 463.8 512.1 465.2 539.2 472.2 553 484.8 560.1 509.2 563.1 519.6 563.9 543.7 561.6 557.7 556.9 587.6 542.1 613.9 522.7 627 508.8 636.3 486 643.7 459.5 647.6 447 649.4 420.3 650.1 409 649Z" fill="#C79A51"/><path d="M579.3 648.9C582.5 641 586.4 626.7 588 616.9 591.7 594.1 592.2 575.1 591.7 481.5 591.2 387.7 590.9 380.4 586.4 358.2 585 351.4 584 345.7 584.2 345.5 584.9 344.8 609 343.8 609 344.4 609 344.8 607.7 353.7 606 364.3 601.8 391.5 600.6 406.4 601.9 414.6 602.9 421.3 605 425.7 607.6 426.7 610.6 427.8 616.3 425.8 620.2 422.2 626.1 416.6 626.2 413.8 620.6 393.8 618 384.6 615.6 373.5 615.2 369.1 614.5 361.7 615.3 345.4 616.5 344.2 616.7 343.9 625.4 343.3 635.7 342.9 646.1 342.4 659.3 341.2 665.3 340.2L676 338.3 676 342.3C676 345.8 675.3 347 669.2 353.4 654.6 368.8 648.8 387.4 646 428.5 644.6 448.5 644.6 546.4 646 583.1 647 609.9 648.4 633.7 649.6 643.2L650.2 648 638.3 647.4C627.9 646.8 607 647.7 585.6 649.7 580 650.2 578.8 650 579.3 648.9Z" fill="#C79A51"/><path d="M791.5 648.8C757.5 645.4 727.1 634.4 711.4 619.7 693 602.6 678.3 568.5 673.5 532.2 671.6 517.6 671.6 490.4 673.5 475.3 680.9 417.4 712 366 750.5 347.9 782 333.1 844.5 330.1 884.7 341.5 899.1 345.6 911.4 352.2 919 359.9 926.6 367.6 930.8 375 934.6 387.5 936.9 395.3 937.3 398.3 937.3 410.5 935.9 427.5 935.9 434.5 929.3 447.9 921.8 463 912.1 471.4 885.8 485.4 873.7 491.9 871.8 493.5 877.6 492.6 884.5 491.6 965.8 487.5 966.5 488.1 966.6 488.3 962.8 495.3 957.9 503.5 950.4 516 948.6 518.5 946.7 518.4 945.5 518.3 937.8 517.7 929.5 517.1 903.5 515.1 873.4 514.4 844 515.1 828.3 515.5 795.8 515.9 771.7 515.9L728 516 728.6 520.3C732.9 552.5 745.1 578.3 765.3 597.9 793.4 625.3 827.1 631.1 863.1 614.7 883.3 605.5 910.9 585.3 936.5 560.9 941.9 555.7 946.1 552 945.8 552.5 945.5 553.1 937.3 572.4 927.5 595.5 917.7 618.6 909.5 637.8 909.1 638.2 906.9 640.7 875.3 647 855.6 648.9 842.7 650.2 804.4 650.1 791.5 648.8ZM771.1 499.6C832.4 486.6 865.4 463.1 875 425.6 877.7 415.1 877.7 401 875 390.6 868.1 363.7 845.2 346.7 823.2 352.4 793.9 359.9 754.8 402 738.2 444 732.4 458.5 727 485.6 727 499.6L727 503.3 743.3 502.7C754.8 502.3 762.9 501.4 771.1 499.6Z" fill="#C79A51"/><path d="M615.7 307.8C609.9 300.6 606.3 293.9 603.1 284.5 598.7 271.3 597.6 261.5 598.3 241.6 598.9 222.3 601.5 207.8 607.5 189.4 611 178.6 619.3 160.4 622.3 156.5 623.8 154.6 623.9 155.1 624 163 624.1 175.5 626.2 189.7 631.9 215 634.7 227.4 637.5 242.4 638.1 248.3 640.5 270.7 634.9 291.1 621.7 308.8L619.2 312.1 615.7 307.8Z" fill="#C79A51"/><path d="M718.3 269.7C712.3 264.7 705.5 260.6 697.6 257.2 693.2 255.3 689.4 253.6 689.2 253.5 688.4 252.8 693.2 245 694.4 245 695.9 245 734 263.7 734 264.4 734 264.9 722.5 272 721.7 272 721.4 272 719.9 271 718.3 269.7Z" fill="#C79A51"/><path d="M506.8 267.1 501.1 263.4 521.5 253.3 541.9 243.1 544.4 247.7C545.9 250.2 546.9 252.4 546.8 252.5 546.6 252.7 543.6 254 540 255.5 532 258.8 526.1 262.2 519.4 267.2 516.6 269.3 513.9 271 513.4 270.9 512.9 270.9 509.9 269.2 506.8 267.1Z" fill="#C79A51"/><path d="M466.2 204 464.2 196 468.9 196C471.4 196 486.3 196.7 502 197.5 517.7 198.3 531.1 199 531.8 199 532.6 199 533 201 533 205.5L533 212 523.8 211.2C511.8 210.3 487.9 210.3 476.9 211.2L468.2 212 466.2 204Z" fill="#C79A51"/><path d="M704 205.6 704 199.3 712.8 198.6C740.6 197.4 772.1 195.7 772.6 196.3 772.9 196.5 771.2 200.2 768.9 204.4L764.6 211.9 757.1 211.2C747.2 210.3 723.8 210.3 712.8 211.3L704 212 704 205.6Z" fill="#C79A51"/><path d="M522.2 155.6 501.8 145.4 507.8 141.7C511.1 139.7 514.2 138 514.7 138 515.1 138 518.2 140.1 521.5 142.6 526.6 146.4 536.1 151.6 545.7 155.6L547.9 156.5 545.2 161.1 542.5 165.8 522.2 155.6Z" fill="#C79A51"/><path d="M690.2 160.8C689 158.5 688.1 156.6 688.2 156.5 688.4 156.3 692.2 154.6 696.8 152.6 701.4 150.6 707.8 147.1 711.2 144.7 722.3 136.9 720.8 137.2 727.9 141.7L734.1 145.6 714 155.3C703 160.6 693.6 165 693.2 165 692.8 165 691.5 163.1 690.2 160.8Z" fill="#C79A51"/><path d="M562.2 117.7C557.8 108.8 550.6 96 546.2 89.4L538.2 77.2 543 72.5 547.8 67.8 553.3 77.6C576.8 119.6 580.9 127.3 580.4 128.1 580.1 128.6 577.7 130.1 575 131.5L570.1 134 562.2 117.7Z" fill="#C79A51"/><path d="M660.7 128.8 655 125.7 656.9 122.6C657.9 120.9 665 108.3 672.6 94.5 680.1 80.8 686.9 68.7 687.5 67.7 688.6 66.1 689.1 66.3 693.8 70L698.9 74.1 690.8 86.3C686.4 93 679.1 106 674.6 115.2L666.4 131.8 660.7 128.8Z" fill="#C79A51"/><path d="M613.9 114.8C613.9 111.9 613.3 101.6 612.7 91.9L611.5 74.2 618.2 77.9 625 81.5 624.2 86.5C623.3 92.9 623.3 105.7 624.2 113.8L625 120 619.5 120 614 120 613.9 114.8Z" fill="#C79A51"/></g></svg>